<svg width="19" height="20" viewBox="0 0 19 20" fill="none" xmlns="http://www.w3.org/2000/svg">
<g clip-path="url(#clip0_357_2624)">
<path d="M11.2306 15.88C11.4506 15.88 11.6706 15.79 11.8306 15.63C11.9906 15.47 12.0806 15.26 12.0806 15.03V8.11002C12.0806 7.89002 11.9906 7.67002 11.8306 7.51002C11.5106 7.19002 10.9606 7.19002 10.6406 7.51002C10.4806 7.67002 10.3906 7.88002 10.3906 8.11002V15.03C10.3906 15.25 10.4806 15.47 10.6406 15.63C10.8006 15.79 11.0106 15.88 11.2406 15.88H11.2306Z" fill="#ED2726"/>
<path d="M18.0502 3.70999C17.8902 3.54999 17.6802 3.45999 17.4502 3.45999H12.4102V3.25999C12.4102 2.38999 12.0702 1.56999 11.4502 0.94999C10.8302 0.32999 10.0102 -0.0100098 9.14023 -0.0100098C8.27023 -0.0100098 7.45023 0.32999 6.83023 0.94999C6.21023 1.56999 5.87023 2.38999 5.87023 3.25999V3.45999H0.840234C0.610234 3.45999 0.400234 3.54999 0.240234 3.70999C0.0802344 3.86999 -0.00976562 4.07999 -0.00976562 4.30999C-0.00976562 4.53999 0.0802344 4.74999 0.240234 4.90999C0.400234 5.06999 0.610234 5.15999 0.840234 5.15999H1.75023L3.04023 16.5C3.14023 17.38 3.56023 18.19 4.22023 18.79C4.88023 19.38 5.74023 19.71 6.63023 19.71H11.6602C12.5502 19.71 13.4002 19.38 14.0702 18.79C14.7302 18.2 15.1502 17.39 15.2502 16.5L16.5402 5.15999H17.4502C17.6802 5.15999 17.8902 5.06999 18.0502 4.90999C18.2102 4.74999 18.3002 4.53999 18.3002 4.30999C18.3002 4.07999 18.2102 3.86999 18.0502 3.70999ZM9.15023 1.68999C9.57023 1.68999 9.97024 1.85999 10.2702 2.14999C10.5602 2.43999 10.7302 2.84999 10.7302 3.26999V3.46999H7.57023V3.26999C7.57023 2.84999 7.74023 2.44999 8.03023 2.14999C8.32023 1.84999 8.73023 1.68999 9.15023 1.68999ZM14.8502 5.14999L13.5802 16.3C13.5302 16.77 13.3002 17.2 12.9502 17.52C12.6002 17.84 12.1402 18.01 11.6702 18.01H6.64023C6.17023 18.01 5.71023 17.84 5.36023 17.52C5.01023 17.2 4.78023 16.77 4.73023 16.3L3.46023 5.14999H14.8602H14.8502Z" fill="#ED2726"/>
<path d="M7.07047 15.88C7.29047 15.88 7.51047 15.79 7.67047 15.63C7.83047 15.47 7.92047 15.26 7.92047 15.03V8.11002C7.92047 7.89002 7.83047 7.67002 7.67047 7.51002C7.35047 7.19002 6.80047 7.19002 6.48047 7.51002C6.32047 7.67002 6.23047 7.88002 6.23047 8.11002V15.03C6.23047 15.25 6.32047 15.47 6.48047 15.63C6.64047 15.79 6.85047 15.88 7.08047 15.88H7.07047Z" fill="#ED2726"/>
</g>
<defs>
<clipPath id="clip0_357_2624">
<rect width="18.3" height="19.69" fill="white"/>
</clipPath>
</defs>
</svg>
